<svg width="24" height="24" xmlns="http://www.w3.org/2000/svg"><g fill="none" fill-rule="evenodd"><path d="M0 0h24v24H0z"/><path d="M12 22c1.046 0 1.846-.772 1.846-1.781h-3.692c0 1.01.8 1.781 1.846 1.781zm6.77-5.344h-.616V10.72c0-2.85-2.092-5.285-4.923-5.819v-.713C13.23 3.534 12.677 3 12 3s-1.23.534-1.23 1.188V4.9c-2.832.534-4.924 2.969-4.924 5.819v5.937h-.615c-.677 0-1.231.535-1.231 1.188 0 .653.554 1.187 1.23 1.187h13.54c.676 0 1.23-.534 1.23-1.187s-.554-1.188-1.23-1.188z" fill="#8D8EA2" fill-rule="nonzero"/></g></svg>