<svg viewBox="0 0 24 24" xmlns="http://www.w3.org/2000/svg"><path d="M6.819 4H17.18c.764 0 1.381.692 1.381 1.547v12.906c0 .855-.617 1.547-1.38 1.547H6.818c-.764 0-1.381-.692-1.381-1.547V5.547c0-.855.617-1.547 1.38-1.547z" fill="#8D8EA2"/><path d="M12.488 10.769h-3.91c-.284 0-.515.34-.515.76 0 .418.23.759.515.759h3.912c.284 0 .515-.341.515-.76 0-.418-.231-.76-.517-.76zm-1.646 3.947H8.578c-.284 0-.515.34-.515.76 0 .418.23.76.515.76h2.264c.284 0 .515-.342.515-.76 0-.42-.231-.76-.515-.76zm3.705-7.892h-5.97c-.283 0-.514.34-.514.76 0 .418.23.759.515.759h5.97c.283 0 .514-.341.514-.76s-.23-.76-.515-.76z" fill="#FFF"/></svg>